<svg width="20" height="18" viewBox="0 0 20 18" fill="none" xmlns="http://www.w3.org/2000/svg">
<path d="M11.2516 0.543152C10.5275 0.543152 9.89691 0.941259 9.56531 1.53017C9.7322 1.46204 9.91431 1.42381 10.1057 1.42381C10.8952 1.42381 11.5352 2.06382 11.5352 2.85333C11.5352 3.52288 11.0744 4.08335 10.4528 4.23864C10.6964 4.34918 10.9666 4.41133 11.2516 4.41133C12.3198 4.41133 13.1856 3.54553 13.1856 2.47733C13.1856 1.40913 12.3198 0.543152 11.2516 0.543152Z" fill="#f0f0f1"/>
<path d="M19.5433 4.80758C19.5433 4.8469 19.1043 4.63507 18.3943 4.77986C17.6845 4.88496 16.7037 5.34685 15.6204 5.8187C14.537 6.29056 13.5563 6.24707 12.8465 5.84661C12.1366 5.48565 11.6975 4.7679 11.6975 4.80758C11.6975 4.7679 12.1366 4.98009 12.8465 4.83512C13.5563 4.73003 14.537 4.26832 15.6204 3.79628C16.7037 3.32424 17.6845 3.36809 18.3943 3.76855C19.1043 4.12933 19.5433 4.84708 19.5433 4.80758Z" fill="#f0f0f1"/>
<path d="M19.7559 5.22764C19.6709 5.22292 19.213 5.04969 18.5138 5.19248C18.253 5.23108 17.9584 5.31443 17.6378 5.42642C17.6623 5.42479 17.6862 5.42171 17.711 5.42171C18.2844 5.42171 18.7491 5.8865 18.7491 6.45983C18.7491 7.03316 18.2844 7.49795 17.711 7.49795C17.7105 7.49795 17.7103 7.49795 17.7103 7.49795C17.9212 7.6016 18.1581 7.66176 18.4094 7.66176C19.2879 7.66176 20 6.94962 20 6.07114C20 5.76092 19.9098 5.47226 19.7559 5.22764Z" fill="#f0f0f1"/>
<path d="M15.4288 14.1703C15.475 14.0817 15.8821 13.6765 16.0691 12.86C16.1543 12.5628 16.2085 12.2075 16.2442 11.8108C16.2342 11.8376 16.2261 11.8646 16.2139 11.8911C15.9356 12.5037 15.2135 12.7748 14.6008 12.4965C13.9884 12.2182 13.7173 11.4959 13.9956 10.8834C13.9956 10.8829 13.996 10.8827 13.9962 10.8823C13.7825 11.0577 13.6035 11.2817 13.4815 11.5502C13.0552 12.4889 13.4705 13.5951 14.4089 14.0215C14.7406 14.1721 15.0926 14.2158 15.4288 14.1703Z" fill="#f0f0f1"/>
<path d="M2.57555 17.5968C2.66561 17.5531 3.17661 17.4694 3.81264 16.9244C4.05799 16.7361 4.37002 16.4826 4.63458 16.1849C4.61066 16.2006 4.58783 16.2175 4.56246 16.2316C3.97427 16.5585 3.23278 16.3469 2.90571 15.7589C2.57882 15.1707 2.79046 14.429 3.37847 14.1021C3.37902 14.1017 3.37938 14.1016 3.37974 14.1016C3.10358 14.1155 2.82652 14.1891 2.56867 14.3324C1.66772 14.8333 1.34354 15.9696 1.84439 16.8706C2.02125 17.1887 2.27838 17.4334 2.57555 17.5968Z" fill="#f0f0f1"/>
<path d="M1.53381 11.8207C1.68675 11.8015 2.2213 11.7551 2.92582 11.3858C3.20035 11.2436 3.49571 11.0387 3.80847 10.792C3.78202 10.8033 3.75665 10.816 3.72929 10.8252C3.0929 11.0439 2.39979 10.7056 2.18107 10.0692C1.96236 9.43282 2.30085 8.73989 2.93724 8.52117C2.9376 8.52099 2.93797 8.52099 2.93851 8.52081C2.66417 8.48602 2.37859 8.50994 2.09953 8.6058C1.12465 8.94103 0.606042 10.0029 0.941089 10.9776C1.0596 11.3221 1.2698 11.6078 1.53381 11.8207Z" fill="#f0f0f1"/>
<path d="M6.9953 4.61534C6.54175 4.70503 6.16031 4.90146 5.93091 5.13612C5.88307 5.06545 5.84828 4.98608 5.83106 4.8991C5.75315 4.50462 6.05304 4.11304 6.50061 4.02479C6.94366 3.93727 7.36496 4.17954 7.44904 4.56677C7.30353 4.56931 7.15114 4.58471 6.9953 4.61534ZM15.7009 7.52023C14.9551 7.2843 14.1917 6.98477 13.4281 6.61838C12.1357 5.99829 10.991 5.26061 10.0455 4.4749C10.083 4.37035 10.1046 4.25818 10.1046 4.14058C10.1046 3.59244 9.65992 3.14794 9.11159 3.14794C8.97696 3.14794 8.84848 3.17512 8.73161 3.22369C8.68105 3.17095 8.6276 3.11533 8.56689 3.0519C8.23329 2.70218 7.4012 1.92409 6.53468 1.28588C5.96262 0.864219 5.44818 0.535514 5.0778 0.355759C3.32102 -0.496991 1.20545 0.235801 0.352703 1.99258C0.259745 2.18375 0.189256 2.38 0.133264 2.57787C0.0832514 2.75418 0.0477347 2.93176 0.0261714 3.11025C-0.0401496 3.65531 0.0203734 4.20237 0.198679 4.70938C0.497123 5.55778 1.11648 6.29366 1.98934 6.71749C2.90425 7.16163 4.42365 7.12792 6.40911 7.32761C6.43049 7.50465 6.44462 7.68368 6.44462 7.86615C6.44462 9.82805 4.10527 11.4924 2.34867 12.0967C4.81523 12.3876 6.82642 11.5451 7.8698 10.6045C7.81217 12.9595 6.30799 16.0959 3.43028 17.7153C6.45531 17.5209 9.29461 14.9627 10.4456 12.6791C11.4774 10.6321 13.2166 9.76862 13.5216 9.682C13.7533 9.60898 14.0001 9.56947 14.256 9.56947C14.2585 9.56947 14.2611 9.56947 14.2636 9.56947C14.8529 9.55915 15.4226 9.73926 15.8783 10.1256C16.8407 10.9408 16.9808 12.4068 16.2935 13.627C17.2749 13.0292 17.9303 11.9494 17.9303 10.7163C17.9303 9.24892 17.002 7.99915 15.7009 7.52023Z" fill="#f0f0f1"/>
</svg>
