<svg width="111" height="98" viewBox="0 0 111 98" fill="none" xmlns="http://www.w3.org/2000/svg">
<path d="M62.0935 2.99731C58.0975 2.99731 54.6175 5.19432 52.7875 8.44432C53.7085 8.06832 54.7135 7.85732 55.7695 7.85732C60.1265 7.85732 63.6585 11.3893 63.6585 15.7463C63.6585 19.4413 61.1155 22.5343 57.6855 23.3913C59.0295 24.0013 60.5205 24.3443 62.0935 24.3443C67.9885 24.3443 72.7665 19.5663 72.7665 13.6713C72.7665 7.77631 67.9885 2.99731 62.0935 2.99731Z" fill="#EE6900"/>
<path d="M107.852 26.5313C107.852 26.7483 105.429 25.5793 101.511 26.3783C97.5944 26.9583 92.1814 29.5073 86.2034 32.1113C80.2244 34.7153 74.8124 34.4753 70.8954 32.2653C66.9774 30.2733 64.5544 26.3123 64.5544 26.5313C64.5544 26.3123 66.9774 27.4833 70.8954 26.6833C74.8124 26.1033 80.2244 23.5553 86.2034 20.9503C92.1814 18.3453 97.5944 18.5873 101.511 20.7973C105.429 22.7883 107.852 26.7493 107.852 26.5313Z" fill="#EE6900"/>
<path d="M109.025 28.8493C108.556 28.8233 106.029 27.8673 102.17 28.6553C100.731 28.8683 99.1054 29.3283 97.3364 29.9463C97.4714 29.9373 97.6034 29.9203 97.7404 29.9203C100.904 29.9203 103.469 32.4853 103.469 35.6493C103.469 38.8133 100.904 41.3783 97.7404 41.3783C97.7374 41.3783 97.7364 41.3783 97.7364 41.3783C98.9004 41.9503 100.207 42.2823 101.594 42.2823C106.442 42.2823 110.372 38.3523 110.372 33.5043C110.372 31.7923 109.874 30.1993 109.025 28.8493Z" fill="#EE6900"/>
<path d="M85.1454 78.2003C85.4004 77.7113 87.6474 75.4753 88.6794 70.9693C89.1494 69.3293 89.4484 67.3683 89.6454 65.1793C89.5904 65.3273 89.5454 65.4763 89.4784 65.6223C87.9424 69.0033 83.9574 70.4993 80.5764 68.9633C77.1964 67.4273 75.7004 63.4413 77.2364 60.0613C77.2364 60.0583 77.2384 60.0573 77.2394 60.0553C76.0604 61.0233 75.0724 62.2593 74.3994 63.7413C72.0464 68.9213 74.3384 75.0263 79.5174 77.3793C81.3474 78.2103 83.2904 78.4513 85.1454 78.2003Z" fill="#EE6900"/>
<path d="M14.2135 97.1103C14.7105 96.8693 17.5305 96.4073 21.0405 93.3993C22.3945 92.3603 24.1165 90.9613 25.5765 89.3183C25.4445 89.4053 25.3185 89.4983 25.1785 89.5763C21.9325 91.3803 17.8405 90.2123 16.0355 86.9673C14.2315 83.7213 15.3995 79.6283 18.6445 77.8243C18.6475 77.8223 18.6495 77.8213 18.6515 77.8213C17.1275 77.8983 15.5985 78.3043 14.1755 79.0953C9.20345 81.8593 7.41445 88.1303 10.1785 93.1023C11.1545 94.8583 12.5735 96.2083 14.2135 97.1103Z" fill="#EE6900"/>
<path d="M8.46446 65.2343C9.30846 65.1283 12.2585 64.8723 16.1465 62.8343C17.6615 62.0493 19.2915 60.9183 21.0175 59.5573C20.8715 59.6193 20.7315 59.6893 20.5805 59.7403C17.0685 60.9473 13.2435 59.0803 12.0365 55.5683C10.8295 52.0563 12.6975 48.2323 16.2095 47.0253C16.2115 47.0243 16.2135 47.0243 16.2165 47.0233C14.7025 46.8313 13.1265 46.9633 11.5865 47.4923C6.20645 49.3423 3.34445 55.2023 5.19345 60.5813C5.84745 62.4823 7.00746 64.0593 8.46446 65.2343Z" fill="#EE6900"/>
<path d="M38.6044 25.4703C36.1014 25.9653 33.9964 27.0493 32.7304 28.3443C32.4664 27.9543 32.2744 27.5163 32.1794 27.0363C31.7494 24.8593 33.4044 22.6983 35.8744 22.2113C38.3194 21.7283 40.6444 23.0653 41.1084 25.2023C40.3054 25.2163 39.4644 25.3013 38.6044 25.4703ZM86.6474 41.5013C82.5314 40.1993 78.3184 38.5463 74.1044 36.5243C66.9724 33.1023 60.6554 29.0313 55.4374 24.6953C55.6444 24.1183 55.7634 23.4993 55.7634 22.8503C55.7634 19.8253 53.3094 17.3723 50.2834 17.3723C49.5404 17.3723 48.8314 17.5223 48.1864 17.7903C47.9074 17.4993 47.6124 17.1923 47.2774 16.8423C45.4364 14.9123 40.8444 10.6183 36.0624 7.0963C32.9054 4.7693 30.0664 2.9553 28.0224 1.9633C18.3274 -2.7427 6.65243 1.3013 1.94643 10.9963C1.43343 12.0513 1.04443 13.1343 0.735433 14.2263C0.459433 15.1993 0.26343 16.1793 0.14443 17.1643C-0.22157 20.1723 0.112433 23.1913 1.09643 25.9893C2.74343 30.6713 6.16143 34.7323 10.9784 37.0713C16.0274 39.5223 24.4124 39.3363 35.3694 40.4383C35.4874 41.4153 35.5654 42.4033 35.5654 43.4103C35.5654 54.2373 22.6554 63.4223 12.9614 66.7573C26.5734 68.3623 37.6724 63.7133 43.4304 58.5223C43.1124 71.5183 34.8114 88.8273 18.9304 97.7643C35.6244 96.6913 51.2934 82.5733 57.6454 69.9713C63.3394 58.6743 72.9374 53.9093 74.6204 53.4313C75.8994 53.0283 77.2614 52.8103 78.6734 52.8103C78.6874 52.8103 78.7014 52.8103 78.7154 52.8103C81.9674 52.7533 85.1114 53.7473 87.6264 55.8793C92.9374 60.3783 93.7104 68.4683 89.9174 75.2023C95.3334 71.9033 98.9504 65.9443 98.9504 59.1393C98.9504 51.0413 93.8274 44.1443 86.6474 41.5013Z" fill="#EE6900"/>
</svg>
